<svg width="16" height="16" viewBox="0 0 16 16" fill="none" xmlns="http://www.w3.org/2000/svg">
<rect width="16" height="16" fill="#FF5071"/>
<g clip-path="url(#clip0_104_40)">
<path d="M3.59792 3.85137C3.55797 3.85137 3.51799 3.83413 3.48749 3.7997L3.04574 3.301C2.98475 3.23214 2.98475 3.12051 3.04574 3.05165C3.10674 2.98278 3.20561 2.98278 3.2666 3.05165L3.7083 3.55035C3.7693 3.61921 3.7693 3.73084 3.7083 3.7997C3.67785 3.83417 3.63786 3.85137 3.59792 3.85137Z" fill="#FF89A0"/>
<path d="M3.15617 3.85137C3.11623 3.85137 3.07624 3.83413 3.04574 3.7997C2.98475 3.73084 2.98475 3.61921 3.04574 3.55035L3.48745 3.05165C3.54844 2.98278 3.64731 2.98278 3.7083 3.05165C3.7693 3.12051 3.7693 3.23214 3.7083 3.301L3.2666 3.7997C3.2361 3.83417 3.19616 3.85137 3.15617 3.85137Z" fill="#FF89A0"/>
<path d="M4.00948 5.27737C4.10715 5.27737 4.18633 5.18798 4.18633 5.07771C4.18633 4.96744 4.10715 4.87805 4.00948 4.87805C3.91181 4.87805 3.83263 4.96744 3.83263 5.07771C3.83263 5.18798 3.91181 5.27737 4.00948 5.27737Z" fill="#FF89A0"/>
<path d="M3.38472 8.09887C3.48239 8.09887 3.56156 8.00948 3.56156 7.89921C3.56156 7.78894 3.48239 7.69955 3.38472 7.69955C3.28705 7.69955 3.20787 7.78894 3.20787 7.89921C3.20787 8.00948 3.28705 8.09887 3.38472 8.09887Z" fill="#FF89A0"/>
<path d="M9.46849 3.42567H5.09516C4.92264 3.42567 4.78277 3.58359 4.78277 3.77836V12.4192C4.78277 12.614 4.92264 12.7719 5.09516 12.7719H10.4056C10.5781 12.7719 10.718 12.614 10.718 12.4192V4.83642L9.46849 3.42567Z" fill="white"/>
<path d="M10.4056 12.9483H5.09516C4.83679 12.9483 4.62659 12.7109 4.62659 12.4192V3.77836C4.62659 3.48664 4.83679 3.24933 5.09516 3.24933H9.4685C9.50996 3.24933 9.54963 3.26793 9.57891 3.301L10.8284 4.71176C10.8577 4.74482 10.8742 4.78969 10.8742 4.83642V12.4192C10.8742 12.7109 10.664 12.9483 10.4056 12.9483ZM5.09516 3.60202C5.00906 3.60202 4.93897 3.68115 4.93897 3.77836V12.4192C4.93897 12.5164 5.00906 12.5956 5.09516 12.5956H10.4056C10.4918 12.5956 10.5618 12.5164 10.5618 12.4192V4.90944L9.40379 3.60202H5.09516Z" fill="#FF89A0"/>
<path d="M9.46849 4.83642H10.718L9.46849 3.42567V4.83642Z" fill="#EFEFD2"/>
<path d="M10.718 5.01277H9.46849C9.38216 5.01277 9.3123 4.93381 9.3123 4.83642V3.42567C9.3123 3.35439 9.3503 3.29006 9.40871 3.26278C9.46713 3.23549 9.53424 3.25065 9.57891 3.301L10.8284 4.71176C10.8732 4.76223 10.8865 4.83797 10.8623 4.90392C10.8382 4.96979 10.7812 5.01277 10.718 5.01277ZM9.62469 4.66008H10.341L9.62469 3.85137V4.66008Z" fill="#FF89A0"/>
<path d="M8.68754 10.1267H6.18849C6.10216 10.1267 6.0323 10.0478 6.0323 9.9504C6.0323 9.85302 6.10216 9.77406 6.18849 9.77406H8.68754C8.77387 9.77406 8.84373 9.85302 8.84373 9.9504C8.84373 10.0478 8.77383 10.1267 8.68754 10.1267Z" fill="#FF89A0"/>
<path d="M7.90659 10.8321H6.18849C6.10216 10.8321 6.0323 10.7532 6.0323 10.6558C6.0323 10.5584 6.10216 10.4794 6.18849 10.4794H7.90659C7.99293 10.4794 8.06277 10.5584 8.06277 10.6558C8.06277 10.7532 7.99289 10.8321 7.90659 10.8321Z" fill="#FF89A0"/>
<path d="M9.46849 10.8321H8.37516C8.28883 10.8321 8.21897 10.7532 8.21897 10.6558C8.21897 10.5584 8.28883 10.4794 8.37516 10.4794H9.46849C9.55483 10.4794 9.62469 10.5584 9.62469 10.6558C9.62469 10.7532 9.55479 10.8321 9.46849 10.8321Z" fill="#FF89A0"/>
<path d="M8.84373 11.5375H6.18849C6.10216 11.5375 6.0323 11.4585 6.0323 11.3612C6.0323 11.2638 6.10216 11.1848 6.18849 11.1848H8.84373C8.93007 11.1848 8.99991 11.2638 8.99991 11.3612C8.99991 11.4585 8.93003 11.5375 8.84373 11.5375Z" fill="#FF89A0"/>
<path d="M7.1091 8C7.0293 8 6.9622 7.98874 6.90779 7.96621C6.85399 7.943 6.81046 7.91195 6.7772 7.87305C6.74396 7.83415 6.72007 7.78977 6.70557 7.73995C6.69166 7.68944 6.68471 7.63756 6.68471 7.58434C6.68471 7.52768 6.69439 7.47444 6.71373 7.42461C6.73307 7.37411 6.75967 7.33008 6.79353 7.29255C6.82739 7.255 6.86697 7.22531 6.91231 7.20347C6.95826 7.18163 7.00784 7.17071 7.06103 7.17071C7.1094 7.17071 7.15293 7.18026 7.19161 7.19937C7.2303 7.21781 7.26326 7.2434 7.29046 7.27616C7.31766 7.30892 7.33851 7.34782 7.35303 7.39287C7.36814 7.43792 7.3757 7.48844 7.3757 7.5444V7.97134C7.3757 8.04368 7.36481 8.11466 7.34306 8.18429C7.3219 8.2539 7.28864 8.31568 7.2433 8.3696C7.19796 8.42352 7.14083 8.46719 7.07191 8.50065C7.003 8.5341 6.92139 8.55081 6.82709 8.55081C6.72974 8.55081 6.64663 8.53615 6.5777 8.50679C6.5094 8.47744 6.45347 8.43921 6.40994 8.39213C6.36703 8.34571 6.33559 8.29384 6.31564 8.2365C6.29569 8.17986 6.28571 8.12355 6.28571 8.06756C6.28571 8.01024 6.29116 7.957 6.30204 7.90785C6.31353 7.85871 6.32561 7.81605 6.33831 7.77989C6.35161 7.74302 6.364 7.71469 6.37549 7.6949C6.38697 7.67442 6.39271 7.66487 6.39271 7.66624L6.5496 7.76145C6.5375 7.78397 6.52541 7.80992 6.51333 7.83926C6.50486 7.86384 6.4967 7.89079 6.48884 7.92015C6.48159 7.94881 6.47796 7.97987 6.47796 8.01331C6.47796 8.057 6.48491 8.09795 6.49881 8.13616C6.51271 8.17439 6.53419 8.2075 6.5632 8.23548C6.59221 8.26415 6.6297 8.28666 6.67564 8.30305C6.72159 8.32011 6.7766 8.32865 6.84069 8.32865C6.90234 8.32865 6.95464 8.3191 6.99756 8.29998C7.04049 8.28087 7.07554 8.25595 7.10274 8.22524C7.12996 8.19521 7.1499 8.1604 7.1626 8.12081C7.1753 8.08123 7.18316 8.04095 7.18617 8H7.1091ZM7.18073 7.77784V7.53315C7.18073 7.49287 7.16834 7.45773 7.14356 7.42769C7.11877 7.39766 7.08431 7.38265 7.04017 7.38265C7.02023 7.38265 7.00059 7.38708 6.98124 7.39595C6.96189 7.40482 6.94436 7.41779 6.92864 7.43485C6.91293 7.45192 6.90023 7.47274 6.89056 7.49731C6.88089 7.52119 6.87604 7.54918 6.87604 7.58126C6.87604 7.61606 6.88209 7.6461 6.89419 7.67136C6.90627 7.69592 6.92199 7.71606 6.94134 7.73176C6.96069 7.74745 6.98336 7.75906 7.00934 7.76656C7.03594 7.77408 7.06376 7.77784 7.09277 7.77784H7.18073ZM6.82709 6.94137C6.82709 6.91066 6.83644 6.88473 6.85519 6.86356C6.87453 6.84173 6.89901 6.83081 6.92864 6.83081C6.95766 6.83081 6.98184 6.84173 7.00119 6.86356C7.02053 6.88473 7.0302 6.91066 7.0302 6.94137C7.0302 6.97277 7.02053 6.99905 7.00119 7.02021C6.98184 7.04137 6.95766 7.05195 6.92864 7.05195C6.89901 7.05195 6.87453 7.04137 6.85519 7.02021C6.83644 6.99905 6.82709 6.97277 6.82709 6.94137ZM7.09096 6.94137C7.09096 6.91066 7.10033 6.88473 7.11907 6.86356C7.13841 6.84173 7.1629 6.83081 7.19253 6.83081C7.22214 6.83081 7.24633 6.84173 7.26507 6.86356C7.28441 6.88473 7.29409 6.91066 7.29409 6.94137C7.29409 6.97277 7.53741 7.22121 7.51807 7.24237C7.49933 7.26353 7.22214 7.05195 7.19253 7.05195C7.1629 7.05195 7.13841 7.04137 7.11907 7.02021C7.10033 6.99905 7.09096 6.97277 7.09096 6.94137Z" fill="#FF89A0"/>
<path d="M8.17731 8H7.87173C7.8028 8 7.74447 7.98874 7.69671 7.96621C7.64894 7.94369 7.60966 7.91468 7.57883 7.87919C7.5486 7.84302 7.52653 7.80206 7.51263 7.75634C7.49933 7.70992 7.49267 7.66316 7.49267 7.61606C7.49267 7.556 7.50114 7.49902 7.51807 7.4451C7.5356 7.39118 7.48603 7.28332 7.51807 7.24237C7.55071 7.20142 7.66346 7.22974 7.70759 7.20655C7.75171 7.18266 7.80009 7.17071 7.85269 7.17071C7.90104 7.17071 7.94517 7.18026 7.98507 7.19937C8.02557 7.21781 8.06003 7.24374 8.08844 7.27719C8.11747 7.31063 8.13953 7.3509 8.15464 7.398C8.16976 7.4444 8.17731 7.4956 8.17731 7.55156V8ZM7.98507 7.77784V7.60787C7.98507 7.53553 7.97269 7.4799 7.9479 7.441C7.92311 7.4021 7.88714 7.38264 7.83999 7.38264C7.82064 7.38264 7.8016 7.38742 7.78286 7.39697C7.76411 7.40653 7.74749 7.42018 7.73299 7.43792C7.71847 7.45498 7.70639 7.47547 7.69671 7.49935C7.68764 7.52324 7.6831 7.55055 7.6831 7.58126C7.6831 7.61744 7.68824 7.64814 7.69851 7.6734C7.7088 7.69797 7.7224 7.71811 7.73933 7.73381C7.75686 7.7495 7.7765 7.76077 7.79827 7.7676C7.82064 7.77442 7.84361 7.77784 7.86719 7.77784H7.98507Z" fill="#FF89A0"/>
<path d="M8.3623 8V7.77784H8.82387V7.58637C8.82387 7.54269 8.81934 7.50755 8.81027 7.48092C8.8012 7.45363 8.7879 7.43247 8.77037 7.41745C8.75344 7.40244 8.73229 7.39219 8.70689 7.38674C8.6815 7.38127 8.65279 7.37855 8.62074 7.37855H8.45751V7.16661H8.65974C8.70569 7.16661 8.75041 7.17208 8.79394 7.183C8.83747 7.19323 8.87586 7.21303 8.90911 7.24237C8.94296 7.27105 8.96956 7.31166 8.98891 7.36421C9.00886 7.41608 9.01883 7.484 9.01883 7.56795V8H8.3623Z" fill="#FF89A0"/>
</g>
<defs>
<clipPath id="clip0_104_40">
<rect width="8" height="10" fill="white" transform="translate(3 3)"/>
</clipPath>
</defs>
</svg>
