<svg width="44" height="44" viewBox="0 0 44 44" fill="none" xmlns="http://www.w3.org/2000/svg">
<path d="M44 21.6535C44 33.6125 34.3054 43.3071 22.3465 43.3071C10.3875 43.3071 0.692917 33.6125 0.692917 21.6535C0.692917 9.69462 10.3875 0 22.3465 0C34.3054 0 44 9.69462 44 21.6535Z" fill="#FF5071" fill-opacity="0.04"/>
<g clip-path="url(#clip0_24_13)">
<path d="M14.8661 19.2913V15.748L16.0472 14.1732H29.0394L30.6142 14.9606V16.9291V28.3464L30.2205 29.5275L29.4331 29.9212H28.6457H25.1024V24.0157H27.0709V22.8346H25.1024V22.4409V21.2598V19.2913L26.2835 18.5039H27.4646V17.7165H25.8898L24.7087 18.1102L23.5276 20.0787V22.8346H21.5591L21.9528 24.0157H23.5276V25.1968V29.9212H15.6535L14.8661 28.7401V19.2913Z" fill="#FF8198" fill-opacity="0.15"/>
<path d="M31.4012 28.0464L31.4016 16.0926C31.4016 14.6 30.1874 13.3859 28.6949 13.3859H16.7854C15.2929 13.3859 14.0787 14.6 14.0787 16.0926V28.002C14.0787 29.4945 15.2929 30.7087 16.7854 30.7087H28.6949C30.1874 30.7087 31.4012 29.5389 31.4012 28.0464L30.0482 28.002C30.0482 28.7482 29.4411 29.3554 28.6949 29.3554H25.3792V24.4156H26.9453C27.2877 24.4156 27.5763 24.1598 27.6172 23.8198L27.7068 23.0755C27.7552 22.6727 27.4408 22.318 27.0349 22.318H25.3792V20.0511C25.3792 19.4905 25.8336 19.0361 26.3942 19.0361H27.24C27.6138 19.0361 27.9167 18.7332 27.9167 18.3594V17.6749C27.9167 17.3283 27.6549 17.037 27.31 17.0018C26.9669 16.9669 26.6038 16.9384 26.3942 16.9384C25.6051 16.9384 24.8141 17.2713 24.2241 17.8516C23.6163 18.4495 23.2815 19.2327 23.2815 20.057V22.318H21.759C21.3852 22.318 21.0823 22.6209 21.0823 22.9946V23.739C21.0823 24.1127 21.3852 24.4156 21.759 24.4156H23.2815V29.3554H16.7854C16.0392 29.3554 15.4321 28.7482 15.4321 28.002V16.0926C15.4321 15.3464 16.0392 14.7392 16.7854 14.7392H28.6949C29.4411 14.7392 30.0482 15.3464 30.0482 16.0926V28.002L31.4012 28.0464Z" fill="#FF8198"/>
</g>
<defs>
<clipPath id="clip0_24_13">
<rect width="17.3228" height="17.3228" fill="white" transform="translate(14.0787 13.3859)"/>
</clipPath>
</defs>
</svg>
