<svg width="44" height="44" viewBox="0 0 44 44" fill="none" xmlns="http://www.w3.org/2000/svg">
<path d="M43.3071 21.6535C43.3071 33.6125 33.6125 43.3071 21.6535 43.3071C9.69462 43.3071 0 33.6125 0 21.6535C0 9.69462 9.69462 0 21.6535 0C33.6125 0 43.3071 9.69462 43.3071 21.6535Z" fill="#FF5071" fill-opacity="0.04"/>
<path fill-rule="evenodd" clip-rule="evenodd" d="M21.66 13C16.8775 13 13 16.8768 13 21.66C13 25.4863 15.4811 28.7323 18.922 29.8776C19.355 29.9577 19.5138 29.69 19.5138 29.4612C19.5138 29.2548 19.5058 28.5728 19.5022 27.849C17.0933 28.3729 16.5845 26.8271 16.5845 26.8271C16.1905 25.8262 15.6233 25.5599 15.6233 25.5599C14.8374 25.0222 15.6824 25.0338 15.6824 25.0338C16.552 25.0951 17.0096 25.9265 17.0096 25.9265C17.7818 27.25 19.0353 26.8675 19.5296 26.646C19.6076 26.086 19.832 25.7042 20.0796 25.4877C18.1563 25.2691 16.1342 24.5265 16.1342 21.2082C16.1342 20.2629 16.4727 19.4899 17.0269 18.8837C16.9367 18.6651 16.6401 17.7847 17.1106 16.5917C17.1106 16.5917 17.8381 16.3594 19.4928 17.4794C20.1835 17.2874 20.9239 17.1914 21.66 17.1878C22.3961 17.1914 23.1373 17.2874 23.8293 17.4794C25.4819 16.3586 26.2087 16.5917 26.2087 16.5917C26.6799 17.7847 26.3833 18.6651 26.2938 18.8837C26.8488 19.4899 27.1851 20.2629 27.1851 21.2082C27.1851 24.5344 25.1594 25.2669 23.2311 25.4812C23.5414 25.7497 23.8185 26.2772 23.8185 27.0848C23.8185 28.2438 23.8084 29.1762 23.8084 29.4612C23.8084 29.6914 23.9643 29.9621 24.4031 29.8769C27.8425 28.7302 30.3207 25.4856 30.3207 21.6607C30.32 16.8775 26.4425 13 21.66 13Z" fill="#FF8198"/>
<path d="M16.28 25.4343C16.2613 25.4776 16.1934 25.4906 16.1314 25.461C16.0686 25.4328 16.0332 25.3737 16.0534 25.3311C16.0722 25.2871 16.14 25.2748 16.2028 25.3044C16.2656 25.3318 16.3017 25.391 16.28 25.4343Z" fill="#FF8198"/>
<path d="M16.6306 25.8255C16.5895 25.8638 16.5087 25.8457 16.4538 25.7858C16.3968 25.7252 16.3867 25.6444 16.4286 25.6061C16.4712 25.5679 16.5491 25.5859 16.6061 25.6465C16.6631 25.7064 16.6739 25.7865 16.6306 25.8255Z" fill="#FF8198"/>
<path d="M16.9721 26.3241C16.9186 26.3609 16.832 26.3263 16.7786 26.2498C16.7252 26.1725 16.7252 26.0802 16.7801 26.0434C16.8335 26.0066 16.9194 26.0398 16.9735 26.1162C17.0262 26.1942 17.0262 26.2866 16.9721 26.3241Z" fill="#FF8198"/>
<path d="M17.4397 26.8062C17.3921 26.8589 17.2911 26.8445 17.2174 26.773C17.1417 26.703 17.1207 26.6041 17.1684 26.5515C17.2167 26.4988 17.3185 26.5139 17.3928 26.5847C17.4679 26.6547 17.4902 26.7543 17.4397 26.8062Z" fill="#FF8198"/>
<path d="M18.0855 27.0855C18.0646 27.1533 17.9672 27.1843 17.869 27.1555C17.7709 27.1259 17.7067 27.0465 17.7269 26.9779C17.7471 26.9094 17.8452 26.8776 17.9441 26.9087C18.0415 26.9375 18.1057 27.0169 18.0855 27.0855Z" fill="#FF8198"/>
<path d="M18.7943 27.1375C18.7964 27.2089 18.7134 27.2681 18.6102 27.2695C18.507 27.2717 18.4226 27.214 18.4219 27.144C18.4219 27.0718 18.5034 27.0133 18.6066 27.0112C18.7098 27.009 18.7943 27.0667 18.7943 27.1375Z" fill="#FF8198"/>
<path d="M19.4539 27.0256C19.4661 27.0949 19.3947 27.167 19.2922 27.1858C19.1919 27.2046 19.0988 27.1613 19.0858 27.092C19.0736 27.0205 19.1464 26.9491 19.2468 26.9303C19.3485 26.9123 19.4409 26.9541 19.4539 27.0256Z" fill="#FF8198"/>
</svg>
