<svg width="44" height="44" viewBox="0 0 44 44" fill="none" xmlns="http://www.w3.org/2000/svg">
<circle cx="21.6535" cy="21.6535" r="21.6535" fill="#FF5071" fill-opacity="0.04"/>
<g clip-path="url(#clip0_24_12)">
<path d="M16.5354 14.567H18.8976H27.1654L28.3465 15.7481L29.1339 16.5355V25.9843L27.9528 28.7402L26.378 29.9213H18.1102H16.5354L14.5669 28.7402L13.7795 27.9528V17.7166L14.5669 15.7481L16.5354 14.567Z" fill="#FF8198" fill-opacity="0.15" stroke="#FF8198"/>
<path d="M21.2598 14.9464C23.5724 14.9464 23.8467 14.955 24.7598 14.9969C25.7039 15.0402 26.6761 15.2553 27.364 15.9431C28.0583 16.6375 28.2669 17.6004 28.3102 18.5473C28.3521 19.4604 28.3608 19.7347 28.3608 22.0473C28.3608 24.3599 28.3521 24.6342 28.3102 25.5472C28.2677 26.4863 28.0475 27.4679 27.364 28.1514C26.6696 28.8458 25.7075 29.0544 24.7598 29.0977C23.8467 29.1395 23.5724 29.1482 21.2598 29.1482C18.9472 29.1482 18.673 29.1395 17.7599 29.0977C16.8281 29.0551 15.8335 28.8299 15.1557 28.1514C14.465 27.4607 14.2528 26.4884 14.2094 25.5472C14.1676 24.6342 14.1589 24.3599 14.1589 22.0473C14.1589 19.7347 14.1676 19.4604 14.2094 18.5473C14.252 17.6119 14.4743 16.6245 15.1557 15.9431C15.8486 15.2502 16.8151 15.0402 17.7599 14.9969C18.673 14.955 18.9472 14.9464 21.2598 14.9464ZM21.2598 13.3859C18.9075 13.3859 18.6123 13.396 17.6885 13.4378C16.3495 13.4992 15.02 13.8716 14.0521 14.8395C13.0806 15.8111 12.7117 17.1377 12.6504 18.4759C12.6085 19.3998 12.5984 19.695 12.5984 22.0473C12.5984 24.3996 12.6085 24.6948 12.6504 25.6187C12.7117 26.9561 13.0856 28.2893 14.0521 29.255C15.0229 30.2258 16.3517 30.5954 17.6885 30.6567C18.6123 30.6986 18.9075 30.7087 21.2598 30.7087C23.6121 30.7087 23.9073 30.6986 24.8312 30.6567C26.1694 30.5954 27.5004 30.2222 28.4676 29.255C29.4398 28.2828 29.8079 26.9569 29.8693 25.6187C29.9112 24.6948 29.9213 24.3996 29.9213 22.0473C29.9213 19.695 29.9112 19.3998 29.8693 18.4759C29.8079 17.137 29.4348 15.8067 28.4676 14.8395C27.4982 13.8702 26.1658 13.4985 24.8312 13.4378C23.9073 13.396 23.6121 13.3859 21.2598 13.3859Z" fill="#FF8198"/>
<path d="M21.2598 17.5996C18.8036 17.5996 16.8122 19.591 16.8122 22.0472C16.8122 24.5035 18.8036 26.4949 21.2598 26.4949C23.7161 26.4949 25.7075 24.5035 25.7075 22.0472C25.7075 19.591 23.7161 17.5996 21.2598 17.5996ZM21.2598 24.9344C19.6654 24.9344 18.3727 23.6417 18.3727 22.0472C18.3727 20.4528 19.6654 19.1601 21.2598 19.1601C22.8543 19.1601 24.147 20.4528 24.147 22.0472C24.147 23.6417 22.8543 24.9344 21.2598 24.9344Z" fill="#FF8198"/>
<path d="M25.8836 18.4629C26.4576 18.4629 26.923 17.9976 26.923 17.4235C26.923 16.8495 26.4576 16.3842 25.8836 16.3842C25.3096 16.3842 24.8442 16.8495 24.8442 17.4235C24.8442 17.9976 25.3096 18.4629 25.8836 18.4629Z" fill="#FF8198"/>
</g>
<defs>
<clipPath id="clip0_24_12">
<rect width="17.3228" height="17.3228" fill="white" transform="translate(12.5984 13.3859)"/>
</clipPath>
</defs>
</svg>
