<svg width="56" height="62" viewBox="0 0 56 62" fill="none" xmlns="http://www.w3.org/2000/svg">
<path d="M4.18542 5.27848C3.9058 5.27848 3.6259 5.1716 3.41243 4.95813L0.32021 1.86618C-0.106737 1.43924 -0.106737 0.747157 0.32021 0.32021C0.747157 -0.106737 1.43924 -0.106737 1.86618 0.32021L4.95813 3.41216C5.38508 3.8391 5.38508 4.53118 4.95813 4.95813C4.74493 5.17188 4.46504 5.27848 4.18542 5.27848Z" fill="#FF89A0"/>
<path d="M1.0932 5.27848C0.813578 5.27848 0.533683 5.1716 0.32021 4.95813C-0.106737 4.53118 -0.106737 3.8391 0.32021 3.41216L3.41216 0.32021C3.83911 -0.106737 4.53118 -0.106737 4.95813 0.32021C5.38508 0.747157 5.38508 1.43924 4.95813 1.86618L1.86618 4.95813C1.65271 5.17188 1.37309 5.27848 1.0932 5.27848Z" fill="#FF89A0"/>
<path d="M7.06635 14.1197C7.75004 14.1197 8.30428 13.5655 8.30428 12.8818C8.30428 12.1981 7.75004 11.6439 7.06635 11.6439C6.38266 11.6439 5.82842 12.1981 5.82842 12.8818C5.82842 13.5655 6.38266 14.1197 7.06635 14.1197Z" fill="#FF89A0"/>
<path d="M2.69302 31.6131C3.3767 31.6131 3.93094 31.0588 3.93094 30.3751C3.93094 29.6914 3.3767 29.1372 2.69302 29.1372C2.00933 29.1372 1.45509 29.6914 1.45509 30.3751C1.45509 31.0588 2.00933 31.6131 2.69302 31.6131Z" fill="#FF89A0"/>
<path d="M45.2794 2.63916H14.6661C13.4585 2.63916 12.4794 3.61824 12.4794 4.82583V58.3992C12.4794 59.6067 13.4585 60.5858 14.6661 60.5858H51.8394C53.047 60.5858 54.0261 59.6067 54.0261 58.3992V11.3858L45.2794 2.63916Z" fill="white"/>
<path d="M51.8395 61.6792H14.6661C12.8575 61.6792 11.3861 60.2078 11.3861 58.3992V4.82584C11.3861 3.01719 12.8575 1.54584 14.6661 1.54584H45.2794C45.5697 1.54584 45.8474 1.66118 46.0524 1.86618L54.7991 10.6129C55.0041 10.8179 55.1194 11.0961 55.1194 11.3858V58.3992C55.1194 60.2078 53.6481 61.6792 51.8395 61.6792ZM14.6661 3.7325C14.0634 3.7325 13.5728 4.22314 13.5728 4.82584V58.3992C13.5728 59.0019 14.0634 59.4925 14.6661 59.4925H51.8395C52.4427 59.4925 52.9328 59.0019 52.9328 58.3992V11.8385L44.8265 3.7325H14.6661Z" fill="#FF89A0"/>
<path d="M45.2794 11.3859H54.0261L45.2794 2.63919V11.3859Z" fill="#EFEFD2"/>
<path d="M54.0261 12.4792H45.2794C44.6751 12.4792 44.1861 11.9896 44.1861 11.3858V2.63918C44.1861 2.1972 44.4521 1.7984 44.861 1.62921C45.2699 1.46002 45.7397 1.55404 46.0524 1.86619L54.7991 10.6129C55.1121 10.9258 55.2058 11.3954 55.0361 11.8043C54.8674 12.2127 54.4681 12.4792 54.0261 12.4792ZM46.3728 10.2925H51.3868L46.3728 5.27848V10.2925Z" fill="#FF89A0"/>
<path d="M39.8128 44.1858H22.3194C21.7151 44.1858 21.2261 43.6963 21.2261 43.0925C21.2261 42.4887 21.7151 41.9992 22.3194 41.9992H39.8128C40.4171 41.9992 40.9061 42.4887 40.9061 43.0925C40.9061 43.6963 40.4168 44.1858 39.8128 44.1858Z" fill="#FF89A0"/>
<path d="M34.3461 48.5592H22.3194C21.7151 48.5592 21.2261 48.0696 21.2261 47.4658C21.2261 46.862 21.7151 46.3725 22.3194 46.3725H34.3461C34.9505 46.3725 35.4394 46.862 35.4394 47.4658C35.4394 48.0696 34.9502 48.5592 34.3461 48.5592Z" fill="#FF89A0"/>
<path d="M45.2794 48.5592H37.6261C37.0218 48.5592 36.5328 48.0696 36.5328 47.4658C36.5328 46.862 37.0218 46.3725 37.6261 46.3725H45.2794C45.8838 46.3725 46.3728 46.862 46.3728 47.4658C46.3728 48.0696 45.8835 48.5592 45.2794 48.5592Z" fill="#FF89A0"/>
<path d="M40.9061 52.9325H22.3194C21.7151 52.9325 21.2261 52.443 21.2261 51.8392C21.2261 51.2354 21.7151 50.7458 22.3194 50.7458H40.9061C41.5105 50.7458 41.9994 51.2354 41.9994 51.8392C41.9994 52.443 41.5102 52.9325 40.9061 52.9325Z" fill="#FF89A0"/>
<path d="M28.7637 31C28.2051 31 27.7354 30.9302 27.3545 30.7905C26.9779 30.6466 26.6732 30.4541 26.4404 30.2129C26.2077 29.9717 26.0405 29.6966 25.939 29.3877C25.8416 29.0745 25.793 28.7529 25.793 28.4229C25.793 28.0716 25.8607 27.7415 25.9961 27.4326C26.1315 27.1195 26.3177 26.8465 26.5547 26.6138C26.7917 26.381 27.0688 26.1969 27.3862 26.0615C27.7078 25.9261 28.0549 25.8584 28.4272 25.8584C28.7658 25.8584 29.0705 25.9176 29.3413 26.0361C29.6121 26.1504 29.8428 26.3091 30.0332 26.5122C30.2236 26.7153 30.3696 26.9565 30.4712 27.2358C30.577 27.5151 30.6299 27.8283 30.6299 28.1753V30.8223C30.6299 31.2708 30.5537 31.7109 30.4014 32.1426C30.2533 32.5742 30.0205 32.9572 29.7031 33.2915C29.3857 33.6258 28.9858 33.8966 28.5034 34.104C28.021 34.3114 27.4497 34.415 26.7896 34.415C26.1082 34.415 25.5264 34.3241 25.0439 34.1421C24.5658 33.9601 24.1743 33.7231 23.8696 33.4312C23.5692 33.1434 23.3491 32.8218 23.2095 32.4663C23.0698 32.1151 23 31.766 23 31.4189C23 31.0635 23.0381 30.7334 23.1143 30.4287C23.1947 30.124 23.2793 29.8595 23.3682 29.6353C23.4613 29.4067 23.548 29.2311 23.6284 29.1084C23.7088 28.9814 23.749 28.9222 23.749 28.9307L24.8472 29.521C24.7625 29.6606 24.6779 29.8215 24.5933 30.0034C24.534 30.1558 24.4769 30.3229 24.4219 30.5049C24.3711 30.6826 24.3457 30.8752 24.3457 31.0825C24.3457 31.3534 24.3944 31.6073 24.4917 31.8442C24.589 32.0812 24.7393 32.2865 24.9424 32.46C25.1455 32.6377 25.4079 32.7773 25.7295 32.8789C26.0511 32.9847 26.4362 33.0376 26.8848 33.0376C27.3164 33.0376 27.6825 32.9784 27.9829 32.8599C28.2834 32.7414 28.5288 32.5869 28.7192 32.3965C28.9097 32.2103 29.0493 31.9945 29.1382 31.749C29.2271 31.5036 29.2821 31.2539 29.3032 31H28.7637ZM29.2651 29.6226V28.1055C29.2651 27.8558 29.1784 27.6379 29.0049 27.4517C28.8314 27.2655 28.5902 27.1724 28.2812 27.1724C28.1416 27.1724 28.0041 27.1999 27.8687 27.2549C27.7332 27.3099 27.6105 27.3903 27.5005 27.4961C27.3905 27.6019 27.3016 27.731 27.2339 27.8833C27.1662 28.0314 27.1323 28.2049 27.1323 28.4038C27.1323 28.6196 27.1746 28.8058 27.2593 28.9624C27.3439 29.1147 27.4539 29.2396 27.5894 29.3369C27.7248 29.4342 27.8835 29.5062 28.0654 29.5527C28.2516 29.5993 28.4463 29.6226 28.6494 29.6226H29.2651ZM26.7896 24.4365C26.7896 24.2461 26.8551 24.0853 26.9863 23.9541C27.1217 23.8187 27.2931 23.751 27.5005 23.751C27.7036 23.751 27.8729 23.8187 28.0083 23.9541C28.1437 24.0853 28.2114 24.2461 28.2114 24.4365C28.2114 24.6312 28.1437 24.7941 28.0083 24.9253C27.8729 25.0565 27.7036 25.1221 27.5005 25.1221C27.2931 25.1221 27.1217 25.0565 26.9863 24.9253C26.8551 24.7941 26.7896 24.6312 26.7896 24.4365ZM28.6367 24.4365C28.6367 24.2461 28.7023 24.0853 28.8335 23.9541C28.9689 23.8187 29.1403 23.751 29.3477 23.751C29.555 23.751 29.7243 23.8187 29.8555 23.9541C29.9909 24.0853 30.0586 24.2461 30.0586 24.4365C30.0586 24.6312 31.7619 26.1715 31.6265 26.3027C31.4953 26.4339 29.555 25.1221 29.3477 25.1221C29.1403 25.1221 28.9689 25.0565 28.8335 24.9253C28.7023 24.7941 28.6367 24.6312 28.6367 24.4365Z" fill="#FF89A0"/>
<path d="M36.2412 31H34.1021C33.6196 31 33.2113 30.9302 32.877 30.7905C32.5426 30.6509 32.2676 30.471 32.0518 30.251C31.8402 30.0267 31.6857 29.7728 31.5884 29.4893C31.4953 29.2015 31.4487 28.9116 31.4487 28.6196C31.4487 28.2472 31.508 27.8939 31.6265 27.5596C31.7492 27.2253 31.4022 26.5566 31.6265 26.3027C31.855 26.0488 32.6442 26.2244 32.9531 26.0806C33.262 25.9325 33.6006 25.8584 33.9688 25.8584C34.3073 25.8584 34.6162 25.9176 34.8955 26.0361C35.179 26.1504 35.4202 26.3112 35.6191 26.5186C35.8223 26.7259 35.9767 26.9756 36.0825 27.2676C36.1883 27.5553 36.2412 27.8727 36.2412 28.2197V31ZM34.8955 29.6226V28.5688C34.8955 28.1203 34.8088 27.7754 34.6353 27.5342C34.4618 27.293 34.21 27.1724 33.8799 27.1724C33.7445 27.1724 33.6112 27.202 33.48 27.2612C33.3488 27.3205 33.2324 27.4051 33.1309 27.5151C33.0293 27.6209 32.9447 27.7479 32.877 27.896C32.8135 28.0441 32.7817 28.2134 32.7817 28.4038C32.7817 28.6281 32.8177 28.8185 32.8896 28.9751C32.9616 29.1274 33.0568 29.2523 33.1753 29.3496C33.298 29.4469 33.4355 29.5168 33.5879 29.5591C33.7445 29.6014 33.9053 29.6226 34.0703 29.6226H34.8955Z" fill="#FF89A0"/>
<path d="M37.5361 31V29.6226H40.7671V28.4355C40.7671 28.1647 40.7354 27.9468 40.6719 27.7817C40.6084 27.6125 40.5153 27.4813 40.3926 27.3882C40.2741 27.2951 40.126 27.2316 39.9482 27.1978C39.7705 27.1639 39.5695 27.147 39.3452 27.147H38.2026V25.833H39.6182C39.9398 25.833 40.2529 25.8669 40.5576 25.9346C40.8623 25.998 41.131 26.1208 41.3638 26.3027C41.6007 26.4805 41.7869 26.7323 41.9224 27.0581C42.062 27.3797 42.1318 27.8008 42.1318 28.3213V31H37.5361Z" fill="#FF89A0"/>
</svg>
